PathFileType	4	(X/Y/Z)	RBDS03\RBDS03runT35.trc
DataRate	CameraRate	NumFrames	NumMarkers	Units	OrigDataRate	OrigDataStartFrame	OrigNumFrames
150.000000	150.000000	4	33	mm	150.000000	1687	4500
Frame#	Time	L.ASIS			L.Heel.Bottom			L.Heel.Lateral			L.Heel.Top			L.Iliac.Crest			L.MT1			L.MT5			L.PSIS			L.Shank.Bottom.Lateral			L.Shank.Bottom.Medial			L.Shank.Top.Lateral			L.Shank.Top.Medial			L.Thigh.Bottom.Lateral			L.Thigh.Bottom.Medial			L.Thigh.Top.Lateral			L.Thigh.Top.Medial			R.ASIS			R.ASY			R.Heel.Bottom			R.Heel.Lateral			R.Heel.Top			R.Iliac.Crest			R.MT1			R.MT5			R.PSIS			R.Shank.Bottom.Lateral			R.Shank.Bottom.Medial			R.Shank.Top.Lateral			R.Shank.Top.Medial			R.Thigh.Bottom.Lateral			R.Thigh.Bottom.Medial			R.Thigh.Top.Lateral			R.Thigh.Top.Medial			
		X1	Y1	Z1	X2	Y2	Z2	X3	Y3	Z3	X4	Y4	Z4	X5	Y5	Z5	X6	Y6	Z6	X7	Y7	Z7	X8	Y8	Z8	X9	Y9	Z9	X10	Y10	Z10	X11	Y11	Z11	X12	Y12	Z12	X13	Y13	Z13	X14	Y14	Z14	X15	Y15	Z15	X16	Y16	Z16	X17	Y17	Z17	X18	Y18	Z18	X19	Y19	Z19	X20	Y20	Z20	X21	Y21	Z21	X22	Y22	Z22	X23	Y23	Z23	X24	Y24	Z24	X25	Y25	Z25	X26	Y26	Z26	X27	Y27	Z27	X28	Y28	Z28	X29	Y29	Z29	X30	Y30	Z30	X31	Y31	Z31	X32	Y32	Z32	X33	Y33	Z33	

1688	11.24666666666667	2361.694222343331	1027.931072675213	980.3053098352409	1737.836947454978	627.6690164481571	1042.112154075117	1734.192967803468	598.6224260280761	990.3096714687314	1783.22915041525	607.2715642847288	1031.15017081548	2302.542207991504	1102.40874506348	930.3336725263531	1717.902143484925	398.5960427226362	1053.686607187379	1692.163862371314	449.11552835277	958.0940159707526	2185.295221855035	1058.377044554508	1025.209830495114	1858.442203323931	546.7245668355463	964.1697714254231	1862.564642725958	581.6993617212958	1006.004108366318	1937.315133563899	552.3836912572432	951.2797189571493	1941.870272660495	587.5828602022689	991.2763094525001	2231.100048285009	579.4058952113293	930.8209683162204	2175.868940259614	592.3399848506945	977.7190283952667	2241.427323338876	687.6550065508866	913.4038582126357	2183.443774217289	700.1697810210376	951.3304707676327	2338.708625839601	1043.859192693314	1191.779845850957	7331575108.412689	-192925334.8590339	-639483362.4994274	2308.601009039105	29.19281183502853	1099.468484540201	2342.875468663963	48.76811416319022	1147.954215610205	2316.566566113196	77.27553644950983	1102.18989012814	2270.954276823961	1114.127891647052	1229.664484794227	2521.36813479797	58.22576284300944	1065.93013869766	2498.125897605904	42.83797966374493	1179.640689702532	2175.97864691807	1063.86315584014	1109.661541349665	2371.929681212551	154.6136300436378	1164.599924935072	2334.454793949146	164.0902370686403	1130.258479319246	2366.470667993223	235.7557573388652	1188.096530724007	2329.089632929384	242.0669836297664	1150.02936348227	2377.941942532311	626.381796722345	1225.653026931726	2317.775695305538	603.4526977971778	1191.768669971183	2329.278034722181	723.6751776872658	1244.797754771135	2273.19206106818	701.6813964330555	1212.447216583212	
1689	11.25333333333333	2358.496768055319	1020.487756300038	980.1728355817702	1754.797944606273	630.9381529562711	1039.134935203447	1751.418383922868	601.6017243086998	987.5539011065744	1799.976728814947	609.7183375391605	1029.339227757216	2299.592178348718	1094.308599729912	929.6534703785644	1730.509095037031	402.4336011805246	1052.224399390111	1707.262084983417	452.6079643930115	955.8068652149813	2182.34882356918	1051.552549063886	1025.52110071069	1874.353085687621	546.7474231153293	962.562724022343	1879.487127812308	582.0615613549086	1004.076250341987	1953.438768714414	550.1909914887094	949.5903363193597	1958.903980725338	585.6097015132996	989.2951481137472	2243.159000654604	571.3825441091752	929.6464987632813	2186.444527251898	582.3514202789404	975.1848504007103	2249.925013901062	679.9605127148994	912.2919551865476	2190.725101127871	690.2811005587197	948.6878313007469	2336.339099589257	1037.431355587776	1191.378143582739	7348813173.166625	-193377885.014853	-640986046.2819693	2286.216594754613	30.32023988247486	1098.589231088209	2321.255278382597	49.83278801401765	1146.591294073669	2296.005401702521	78.28140505547449	1100.193666243025	2269.257325090403	1105.791230504255	1230.000457830476	2500.520981332677	52.51146838813077	1064.655809083935	2476.647477443037	39.8342751928551	1178.443746539118	2173.189628398914	1057.375606828506	1109.793451680901	2357.229362141128	152.7614308595658	1162.100625385005	2319.582762230134	164.2481181610742	1128.619932392179	2356.149627777756	233.8840057151135	1186.231141603543	2318.260950736679	242.313705301691	1149.027162851349	2379.217253361575	622.2827479972491	1225.933644371676	2319.177325454626	598.9066586266268	1192.122276487476	2329.734411688272	718.985394824449	1245.696872680647	2273.61336770966	696.6901614805516	1213.354019939921	
1690	11.26	2354.940274438534	1013.194086760892	980.0982887089283	1771.767205818249	632.9070880406294	1035.785106560196	1768.933985988066	603.113270746597	984.5546488181525	1816.814861444576	611.0756790552781	1027.398739360141	2296.166545272479	1086.18932616896	929.0704362687303	1744.103510193638	404.9419183798446	1050.933974238625	1723.44233900527	454.3398939191808	953.547590977199	2179.128328794513	1044.985278964222	1026.022432868901	1890.657683527937	545.8284333896943	960.9736088194754	1896.663866203325	581.6185769922865	1002.042813674064	1969.892732263473	547.3958092885156	947.9230294371209	1976.147453388537	583.1508051039696	987.2253940531955	2255.747829874424	564.2930081966484	928.6019268680109	2197.623089032333	573.1420109900462	972.7532265577379	2258.787688486236	673.0824560623475	911.3047537884462	2198.409806141706	681.0394748405685	946.1084953256295	2333.700690790345	1030.988123780156	1190.937396477134	7366078236.975751	-193831142.3038981	-642491082.2583652	2263.724391808024	31.7714028718865	1097.656427435588	2299.288188242153	51.38396094414638	1145.225217521581	2274.985708683896	79.5968849239428	1098.172523511947	2267.84238658126	1097.216154195717	1230.488539795733	2479.076577483507	48.55608257087067	1063.784394309615	2454.592181071974	38.25065588706521	1177.450544980708	2170.154397989683	1051.1205105584	1110.053372583413	2341.838502568773	151.788819989034	1159.593007710793	2304.162388805486	165.2561684721739	1126.905805883903	2345.09723093289	232.7107839236249	1184.290660882388	2306.851817499714	243.2322213942634	1147.896305100834	2379.621494007791	618.2349205097983	1226.190947151068	2319.797024192694	594.5526955236357	1192.220395410965	2329.406124478367	714.425611108901	1246.522044355232	2273.346220961486	691.9434486069092	1214.00026065856	
1691	11.26666666666667	2351.10226422772	1006.230200777581	980.0972778346143	1788.520230321988	633.5781600831245	1032.153731269502	1786.52832709006	603.1683291918426	981.3993606127693	1833.527737656229	611.3577416524281	1025.380765138402	2292.279396223192	1078.255300753588	928.6278308993241	1758.556891874527	406.0709349868124	1049.849671732813	1740.549577971914	454.2999425096939	951.3861282348938	2175.715701147977	1038.805735743362	1026.662463905097	1907.188048425688	544.0208591668135	959.4573369114671	1913.900945686629	580.42756174306	999.951582516331	1986.522877742374	544.0887672846775	946.3329525690621	1993.43040649034	580.3142437311908	985.1080264397225	2268.805505831168	558.3365848827451	927.700704445852	2209.411327175343	564.9279140690717	970.5052288791286	2267.972135238627	667.1992078630801	910.4421043306507	2206.508752102926	672.6521884873747	943.6715306059513	2330.851617411367	1024.703827504024	1190.536567157006	7383370320.967113	-194285107.2781898	-643998472.2681503	2241.185626255127	33.34483119641106	1096.751299543878	2277.067387230026	53.18359623317366	1143.946252891801	2253.562107870557	81.0337574036861	1096.26760257352	2266.611567718615	1088.622467577685	1231.124795300872	2457.121189871725	46.16338625411928	1063.278191513166	2432.108100439732	37.81780838534674	1176.650503961696	2166.945167872156	1045.216115967934	1110.39043933098	2325.6976644168	151.5210103147404	1157.233405466814	2288.131416670972	166.892509140102	1125.25097513243	2333.169445710693	232.0820309426774	1182.40958408877	2294.73011130607	244.6086139841364	1146.741224589288	2378.937388473752	614.2056873424445	1226.373900496739	2319.384734961019	590.3968975070933	1192.040506507757	2328.154719270663	710.0147291969813	1247.196270407331	2272.233902421904	687.490146989653	1214.331160527417	
